<?xml version="1.0" encoding="UTF-8"?><svg id="Layer_1" xmlns="http://www.w3.org/2000/svg" viewBox="0 0 168.12 75.54"><defs><style>.cls-1{fill:#ff6900;}.cls-2{fill:#ff8200;}.cls-3{fill:#1c1c4c;}</style></defs><polygon class="cls-2" points="12.57 46.92 30.91 65.22 49.25 46.92 30.91 28.62 12.57 46.92"/><polygon class="cls-1" points="30.91 10.32 12.57 28.62 30.91 46.92 49.25 28.62 30.91 10.32"/><path class="cls-3" d="M58.17,44.11l2.44-2.92c1.69,1.39,3.46,2.27,5.6,2.27,1.69,0,2.71-.67,2.71-1.77v-.05c0-1.04-.64-1.58-3.78-2.38-3.78-.96-6.22-2.01-6.22-5.72v-.05c0-3.4,2.73-5.65,6.57-5.65,2.74,0,5.07,.86,6.97,2.38l-2.15,3.1c-1.66-1.15-3.3-1.85-4.88-1.85s-2.41,.72-2.41,1.63v.05c0,1.23,.8,1.63,4.05,2.46,3.81,.99,5.95,2.36,5.95,5.62v.05c0,3.72-2.84,5.81-6.89,5.81-2.84,0-5.71-.99-7.96-3"/><path class="cls-3" d="M86.41,39.75v-.05c0-2.11-1.53-3.96-3.78-3.96s-3.73,1.79-3.73,3.91v.05c0,2.11,1.53,3.96,3.78,3.96s3.73-1.79,3.73-3.91m-11.53,0v-.05c0-4.12,3.33-7.46,7.8-7.46s7.75,3.29,7.75,7.41v.05c0,4.12-3.33,7.46-7.8,7.46s-7.75-3.29-7.75-7.41"/><path class="cls-3" d="M92.17,39.75v-.05c0-4.09,3.14-7.46,7.54-7.46,2.71,0,4.4,.91,5.74,2.41l-2.49,2.68c-.91-.96-1.82-1.58-3.27-1.58-2.04,0-3.49,1.79-3.49,3.91v.05c0,2.19,1.42,3.96,3.65,3.96,1.37,0,2.31-.59,3.3-1.53l2.39,2.41c-1.39,1.52-3,2.62-5.87,2.62-4.32,0-7.48-3.32-7.48-7.41"/><path class="cls-3" d="M107.56,41.79v-9.28h4.08v8c0,1.93,.91,2.92,2.47,2.92s2.55-.99,2.55-2.92v-8h4.08v14.34h-4.08v-2.03c-.94,1.2-2.15,2.3-4.21,2.3-3.08,0-4.88-2.03-4.88-5.32"/><path class="cls-3" d="M123.87,32.5h4.08v2.89c.83-1.98,2.17-3.26,4.58-3.16v4.25h-.21c-2.71,0-4.37,1.63-4.37,5.06v5.3h-4.08v-14.34h0Z"/><path class="cls-3" d="M143.6,38.55c-.24-1.82-1.31-3.05-3.03-3.05s-2.79,1.2-3.11,3.05h6.14Zm-10.14,1.2v-.05c0-4.09,2.92-7.46,7.11-7.46,4.8,0,7,3.72,7,7.79,0,.32-.03,.7-.05,1.07h-10c.4,1.85,1.69,2.81,3.51,2.81,1.37,0,2.36-.43,3.49-1.47l2.33,2.06c-1.34,1.66-3.27,2.68-5.87,2.68-4.32,0-7.51-3.02-7.51-7.41"/><polygon class="cls-3" points="30.91 46.91 49.25 46.91 40.07 37.77 30.91 46.91"/><g><path class="cls-3" d="M152.03,44.38v.49h-.76v2.26h-.56v-2.26h-.76v-.49h2.08Z"/><path class="cls-3" d="M155.55,47.13h-.57l-.2-1.71-.67,1.4h-.44l-.68-1.4-.2,1.71h-.57l.34-2.75h.47l.85,1.81,.84-1.81h.48l.34,2.75h.01Z"/></g></svg>